<svg xmlns:dc="http://purl.org/dc/elements/1.1/" xmlns:cc="http://creativecommons.org/ns#" xmlns:rdf="http://www.w3.org/1999/02/22-rdf-syntax-ns#" xmlns:svg="http://www.w3.org/2000/svg" xmlns="http://www.w3.org/2000/svg" xmlns:sodipodi="http://sodipodi.sourceforge.net/DTD/sodipodi-0.dtd" xmlns:inkscape="http://www.inkscape.org/namespaces/inkscape" version="1.1" x="0px" y="0px" viewBox="0 0 100 125"><g transform="translate(0,-952.36218)"><path style="font-size:medium;font-style:normal;font-variant:normal;font-weight:normal;font-stretch:normal;text-indent:0;text-align:start;text-decoration:none;line-height:normal;letter-spacing:normal;word-spacing:normal;text-transform:none;direction:ltr;block-progression:tb;writing-mode:lr-tb;text-anchor:start;baseline-shift:baseline;opacity:1;color:#000000;fill:#000000;fill-opacity:1;stroke:none;stroke-width:4;marker:none;visibility:visible;display:inline;overflow:visible;enable-background:accumulate;font-family:Sans;-inkscape-font-specification:Sans" d="m 14,25 0,15 -6,0 c -1.150325,0 -2,1.057191 -2,2 0,0.942809 0.9515191,2 2,2 l 15,0 c 1.056602,0.01491 2.028412,-0.943293 2.028412,-2 0,-1.056707 -0.97181,-2.014906 -2.028412,-2 L 18,40 18,29.28125 42.59375,50 18,70.71875 18,66 c 0.01494,-1.056625 -0.943269,-2.028484 -2,-2.028484 -1.056731,0 -2.014943,0.971859 -2,2.028484 l 0,9 c 1.05e-4,1.047169 0.952831,1.999895 2,2 l 76,0 c 1.047169,-1.05e-4 1.999895,-0.952831 2,-2 l 0,-50 c -1.05e-4,-1.047169 -0.952831,-1.999895 -2,-2 l -76,0 c -1.088788,0 -2,1.098741 -2,2 z m 7.46875,2 65.0625,0 L 54,54.375 z M 90,29.3125 90,70.6875 65.40625,50 z M 10,50 c 0,0.942809 0.951519,2 2,2 l 11,0 c 1.056599,0.0149 2.028405,-0.943296 2.028405,-2 0,-1.056704 -0.971806,-2.014902 -2.028405,-2 l -11,0 c -1.150332,0 -2,1.057191 -2,2 z m 35.6875,2.625 7.03125,5.90625 c 0.711899,0.593841 1.850601,0.593841 2.5625,0 L 62.3125,52.625 86.53125,73 21.46875,73 z M 14,58 c 0,0.942809 0.951519,2 2,2 l 7,0 c 1.056616,0.01493 2.028455,-0.943279 2.028455,-2 0,-1.056721 -0.971839,-2.014928 -2.028455,-2 l -7,0 c -1.150333,0 -2,1.057191 -2,2 z" transform="translate(0,952.36218)"/></g><text x="0" y="115" fill="#000000" font-size="5px" font-weight="bold" font-family="'Helvetica Neue', Helvetica, Arial-Unicode, Arial, Sans-serif">Created by throwaway icons</text><text x="0" y="120" fill="#000000" font-size="5px" font-weight="bold" font-family="'Helvetica Neue', Helvetica, Arial-Unicode, Arial, Sans-serif">from the Noun Project</text></svg>